<svg width="140" height="18" viewBox="0 0 140 18" fill="none" xmlns="http://www.w3.org/2000/svg">
<g clip-path="url(#clip0_200_83)">
<path d="M5.89975 16.9593H9.11042L11.5288 9.37043L13.9681 16.9593H17.1788L20.7647 5.70108H17.554L15.4692 12.9355L13.0299 5.70108H10.0277L7.58848 12.9355L5.50363 5.70108H2.29297L5.89975 16.9593ZM20.7439 11.3093C20.7439 14.2386 22.5994 17.2303 26.227 17.2303C27.4675 17.2407 28.5308 16.8863 29.396 16.2713V16.9593H32.3356V5.70108H29.396V6.38911C28.5308 5.77406 27.4675 5.41963 26.227 5.43007C22.5994 5.43007 20.7439 8.38013 20.7439 11.3093ZM23.6001 11.3093C23.5897 9.29745 24.9657 8.15078 26.5606 8.14039C28.1346 8.15078 29.3751 9.26618 29.3751 11.2885C29.3751 13.3212 28.1346 14.5096 26.5606 14.4991C24.9136 14.5096 23.5897 13.3212 23.6001 11.3093ZM34.1286 16.9593H37.1725V10.4754C37.1725 9.17236 37.9334 8.15078 39.2781 8.14039C40.7271 8.15078 41.3422 9.13066 41.3422 10.392V16.9593H44.3862V9.84995C44.3862 7.38982 43.1143 5.3988 40.3206 5.38836C39.1322 5.3988 37.8084 5.90959 37.1099 7.01455V5.70108H34.1286V16.9593ZM45.2619 8.39056H47.3046V13.6235C47.3046 15.8126 48.6706 17.2303 50.8699 17.2303C51.7559 17.2303 52.3086 17.0739 52.5794 16.9593V14.3115C52.4232 14.374 52.0061 14.4158 51.6412 14.4158C50.7762 14.4158 50.3279 14.0926 50.3279 13.1023V8.39056H52.5794V5.70108H50.3279V1.92753L47.3465 3.17843V5.70108H45.2619V8.39056ZM53.5804 11.3302C53.5804 14.5721 55.6548 17.2407 59.0635 17.2303C61.5443 17.2407 63.3372 15.8126 64.1295 13.7486L61.4194 13.1857C60.9711 14.1551 60.1475 14.791 59.0635 14.791C57.6145 14.791 56.6345 13.6548 56.3949 12.1224H64.5047C64.5359 11.8618 64.5466 11.6012 64.5466 11.3302C64.5466 7.89017 62.2844 5.43007 59.0635 5.43007C55.7173 5.43007 53.5804 8.07784 53.5804 11.3302ZM56.5408 10.0168C56.916 8.91175 57.8126 8.14039 59.0635 8.14039C60.3144 8.14039 61.2213 8.91175 61.6068 10.0168H56.5408ZM65.5472 11.3093C65.5472 14.5826 67.6216 17.2407 71.0303 17.2303C72.2709 17.2407 73.334 16.8759 74.1994 16.2713V16.9593L77.1183 16.9801V0.76001L74.137 1.92753V6.3474C73.2194 5.73236 72.1353 5.43007 71.0303 5.43007C67.6738 5.43007 65.5472 8.02569 65.5472 11.3093ZM68.3827 11.3093C68.3827 9.28706 69.7585 8.15078 71.343 8.14039C72.9379 8.15078 74.1682 9.26618 74.1785 11.2676C74.1682 13.3212 72.9379 14.5096 71.343 14.4991C69.717 14.5096 68.3827 13.3212 68.3827 11.3093Z" fill="#333333"/>
<path d="M88.3564 17.3763C91.8276 17.3763 94.3606 14.8328 94.3606 11.3302C94.3606 7.82766 91.8276 5.28418 88.3564 5.28418C84.8849 5.28418 82.3519 7.82766 82.3519 11.3302C82.3519 14.8328 84.8849 17.3763 88.3564 17.3763ZM85.3542 11.3302C85.3542 9.40174 86.6153 7.99445 88.3564 7.99445C90.0971 7.99445 91.3583 9.40174 91.3583 11.3302C91.3583 13.2587 90.0971 14.666 88.3564 14.666C86.6153 14.666 85.3542 13.2587 85.3542 11.3302Z" fill="#333333"/>
<path d="M98.437 16.9593V10.2878C98.4576 9.08902 99.3752 8.07787 100.626 8.07787C101.992 8.07787 102.69 8.98476 102.69 10.538V16.9593H105.692V9.70402C105.692 6.95204 104.128 5.28418 101.689 5.28418C100.324 5.28418 99.1874 5.93046 98.437 6.99375V5.70111H95.4348V16.9593H98.437Z" fill="#333333"/>
<path d="M106.766 11.3302C106.766 14.8328 109.237 17.3763 112.625 17.3763C115.043 17.3763 117.024 16.115 117.983 13.8946L115.085 13.1857C114.605 14.1135 113.74 14.666 112.625 14.666C111.134 14.666 110.092 13.6861 109.831 12.1224H118.441C118.462 11.8618 118.483 11.6013 118.483 11.3302C118.473 7.82766 116.013 5.28418 112.625 5.28418C109.237 5.28418 106.766 7.82766 106.766 11.3302ZM109.967 10.0376C110.154 8.88051 111.124 7.99445 112.625 7.99445C114.105 7.99445 115.064 8.88051 115.273 10.0376H109.967Z" fill="#333333"/>
<path d="M119.724 1.86499V16.9593H122.726V1.86499H119.724Z" fill="#333333"/>
<path d="M124.634 16.9593H129.596C134.558 16.9593 137.508 13.9988 137.518 9.41216C137.508 4.83591 134.569 1.86499 129.617 1.86499H124.634V16.9593ZM127.636 14.2073V4.61699H129.617C132.744 4.61699 134.506 6.50377 134.517 9.41216C134.506 12.3309 132.734 14.2073 129.596 14.2073H127.636Z" fill="#333333"/>
</g>
<defs>
<clipPath id="clip0_200_83">
<rect width="140" height="17" fill="white" transform="translate(0 0.75)"/>
</clipPath>
</defs>
</svg>
