<svg width="57" height="57" viewBox="0 0 57 57" fill="none" xmlns="http://www.w3.org/2000/svg">
<g clip-path="url(#clip0_200_103)">
<path d="M1.24121 28.5C1.24121 13.3073 13.5573 0.991211 28.75 0.991211C43.9427 0.991211 56.2588 13.3073 56.2588 28.5C56.2588 43.6927 43.9427 56.0088 28.75 56.0088C13.5573 56.0088 1.24121 43.6927 1.24121 28.5Z" fill="#FEE500"/>
<path fill-rule="evenodd" clip-rule="evenodd" d="M28.75 16.9131C21.9324 16.9131 16.3992 21.2112 16.3992 26.4973C16.3992 29.7951 18.5358 32.6728 21.7965 34.4266L20.4256 39.4535C20.3996 39.5534 20.405 39.6589 20.4408 39.7558C20.4766 39.8527 20.5412 39.9363 20.6258 39.9954C20.7105 40.0545 20.8113 40.0864 20.9145 40.0867C21.0178 40.0869 21.1187 40.0556 21.2037 39.9969L27.2062 36.0075C27.7125 36.0075 28.2313 36.094 28.75 36.094C35.5677 36.094 41.1009 31.7959 41.1009 26.4973C41.1009 21.1989 35.5677 16.9131 28.75 16.9131Z" fill="#181600"/>
</g>
<defs>
<clipPath id="clip0_200_103">
<rect width="56" height="56" fill="white" transform="translate(0.75 0.5)"/>
</clipPath>
</defs>
</svg>
