<svg width="57" height="57" viewBox="0 0 57 57" fill="none" xmlns="http://www.w3.org/2000/svg">
<g clip-path="url(#clip0_200_116)">
<path fill-rule="evenodd" clip-rule="evenodd" d="M41.6847 28.8067C41.6847 27.8516 41.5994 26.9324 41.4392 26.0505H28.75V31.2619H36.0018C35.689 32.9461 34.7398 34.3743 33.3131 35.3294V38.7099H37.6666C40.2146 36.364 41.6847 32.9101 41.6847 28.8067Z" fill="#3D82F0"/>
<path fill-rule="evenodd" clip-rule="evenodd" d="M28.7503 41.974C32.3882 41.974 35.4378 40.7674 37.6668 38.7104L33.3134 35.3285C32.1067 36.1369 30.5633 36.6145 28.7503 36.6145C25.2411 36.6145 22.271 34.2446 21.211 31.0603H16.7093V34.5515C18.9265 38.9544 23.4836 41.974 28.7503 41.974Z" fill="#31A752"/>
<path fill-rule="evenodd" clip-rule="evenodd" d="M21.2107 31.0602C20.9412 30.2517 20.7886 29.388 20.7886 28.5001C20.7886 27.6124 20.9412 26.7486 21.2107 25.9401V22.449H16.709C15.7973 24.2679 15.2763 26.3264 15.2763 28.5001C15.2763 30.6739 15.7973 32.7324 16.709 34.5514L21.2107 31.0602Z" fill="#F9BA00"/>
<path fill-rule="evenodd" clip-rule="evenodd" d="M28.7503 20.3856C30.728 20.3856 32.5049 21.0653 33.9002 22.4006L37.7657 18.5367C35.4318 16.3615 32.3822 15.0261 28.7503 15.0261C23.4836 15.0261 18.9265 18.0457 16.7093 22.4501L21.211 25.9397C22.271 22.7555 25.2411 20.3856 28.7503 20.3856Z" fill="#E64234"/>
</g>
<defs>
<clipPath id="clip0_200_116">
<rect width="56" height="56" fill="white" transform="translate(0.75 0.5)"/>
</clipPath>
</defs>
</svg>
